<svg xmlns="http://www.w3.org/2000/svg" viewBox="0 0 118 725"><title>logo_vert_text</title><path d="M120,111H29V15h90V28H62V56h49V68H62V98h58v13Z" transform="translate(-13 -15)" style="fill:#ec1c24"/><path d="M125,153H89v83H56V153H20V141H125v13Z" transform="translate(-13 -15)" style="fill:#ec1c24"/><path d="M132,363H99l-7-18H52l-7,18H13l42-96H90ZM88,332L72,289,56,332H88Z" transform="translate(-13 -15)" style="fill:#ec1c24"/><path d="M127,470q0,8-11,13t-31,5H19V392H85q19,0,31,5t11,13v60Zm-33-2V413q0-8-19-8H51v71H75Q95,476,95,468Z" transform="translate(-13 -15)" style="fill:#ec1c24"/><path d="M127,605q0,9-20,9H37q-19,0-19-9V527q0-9,19-9h71q20,0,20,9v79Zm-33-4V530H50v71H95Z" transform="translate(-13 -15)" style="fill:#ec1c24"/><path d="M131,740H97L61,695v-9H93V656H52v84H20V644h86q20,0,20,9v35q0,6-9,8H95Z" transform="translate(-13 -15)" style="fill:#ec1c24"/></svg>